<?xml version="1.0" encoding="UTF-8" standalone="yes"?><svg id="图标绘制层_轮廓化" xmlns="http://www.w3.org/2000/svg" xmlns:xlink="http://www.w3.org/1999/xlink" version="1.2" baseProfile="tiny" x="0" y="0" width="256" height="256" viewBox="0 0 256 256"><defs/><defs/><g transform="matrix(0.290118,0,0,0.290118,-20.5403,-34.6932)"><path fill="#ffffff" fill-opacity="1" d="M 881.2 160 L 142.8 160 C 103.054 160.044 70.8441 192.254 70.8 232 L 70.8 699.84 C 70.8441 739.586 103.054 771.796 142.8 771.84 L 688 771.84 C 701.255 771.84 712 761.095 712 747.84 C 712 734.585 701.255 723.84 688 723.84 L 142.8 723.84 C 129.545 723.84 118.8 713.095 118.8 699.84 L 118.8 232 C 118.8 218.745 129.545 208 142.8 208 L 881.2 208 C 894.455 208 905.2 218.745 905.2 232 L 905.2 699.84 C 905.2 713.095 894.455 723.84 881.2 723.84 L 835.2 723.84 C 821.945 723.84 811.2 734.585 811.2 747.84 C 811.2 761.095 821.945 771.84 835.2 771.84 L 881.2 771.84 C 920.946 771.796 953.156 739.586 953.2 699.84 L 953.2 232 C 953.156 192.254 920.946 160.044 881.2 160 Z"/><path fill="#ffffff" fill-opacity="1" d="M 574.42 322.13 C 574.42 308.875 563.675 298.13 550.42 298.13 L 215.92 298.13 C 202.665 298.13 191.92 308.875 191.92 322.13 C 191.92 335.385 202.665 346.13 215.92 346.13 L 550.42 346.13 C 563.675 346.13 574.42 335.385 574.42 322.13 Z"/><path fill="#ffffff" fill-opacity="1" d="M 486.42 394 L 215.92 394 C 202.665 394 191.92 404.745 191.92 418 C 191.92 431.255 202.665 442 215.92 442 L 486.42 442 C 499.675 442 510.42 431.255 510.42 418 C 510.42 404.745 499.675 394 486.42 394 Z"/><path fill="#ffffff" fill-opacity="1" d="M 486.42 489.85 L 215.92 489.85 C 202.665 489.85 191.92 500.595 191.92 513.85 C 191.92 527.105 202.665 537.85 215.92 537.85 L 486.42 537.85 C 499.675 537.85 510.42 527.105 510.42 513.85 C 510.42 500.595 499.675 489.85 486.42 489.85 Z"/><path fill="#ffffff" fill-opacity="1" d="M 486.42 585.71 L 215.92 585.71 C 202.665 585.71 191.92 596.455 191.92 609.71 C 191.92 622.965 202.665 633.71 215.92 633.71 L 486.42 633.71 C 499.675 633.71 510.42 622.965 510.42 609.71 C 510.42 596.455 499.675 585.71 486.42 585.71 Z"/><path fill="#ffffff" fill-opacity="1" d="M 885.81 868.78 C 863.52 787.46 839.81 692.05 800.53 537.67 C 796.77 522.84 793.93 511.67 792.41 505.67 C 790.41 501.18 794.26 503.37 785.95 491.11 L 691.7 384.85 C 689.211 381.934 686.115 379.597 682.63 378 C 645.15 367.49 649.14 405.95 640.47 439.49 C 631.02 488 620.17 533.56 620.4 541.49 C 620.516 543.108 620.767 544.714 621.15 546.29 C 623.42 555.22 698.92 852.51 698.94 852.57 L 699.24 852.49 C 702.24 861.81 715.88 919.16 720.38 926.41 C 739.53 963.11 777.31 966.49 803.21 957.15 C 828.01 950.15 839.79 948.34 851.6 943.08 C 879.13 930.48 894 897.78 885.81 868.78 M 686.94 451.84 L 724.28 493.94 L 675.66 506.94 L 686.94 451.84 M 750.72 536.55 L 810.72 772.94 L 733.45 793.64 L 673.45 557.25 L 750.72 536.55 M 837.85 893.34 C 833.59 900.29 827.52 900.87 824.41 901.8 C 791.68 909.44 767.84 923.52 761.92 900.96 C 759.83 893.18 745.62 840.13 745.61 840.09 L 822.88 819.38 L 839.44 881.2 C 840.552 885.297 839.979 889.668 837.85 893.34"/></g></svg>
