<svg xmlns="http://www.w3.org/2000/svg" xmlns:xlink="http://www.w3.org/1999/xlink" version="1.1" width="1280" height="720" viewBox="0 0 1280 720"><defs><radialGradient id="ggrad1" cx="0.5" cy="0.5" r="0.5"><stop offset="0.48" stop-color="#9B2D1F"/><stop offset="0.04" stop-color="#FFFFFF"/><stop offset="0.99" stop-color="#D34817"/></radialGradient><linearGradient id="ggrad2" x1="0" y1="0.5" x2="1" y2="0.5"><stop offset="0" stop-color="#D34817"/><stop offset="1" stop-color="#9B2D1F"/></linearGradient></defs><rect x="0" y="0" width="1280" height="720" fill="#FFFFFF"/>
<g id="layout-shape-4" data-name="椭圆 3">
<ellipse cx="-3.78" cy="0" rx="74.12" ry="74.12" fill="url(#ggrad1)" stroke="none" stroke-width="1"/>
</g>
<g id="layout-shape-6" data-name="矩形 5">
<rect x="0" y="671.28" width="1284.68" height="48.72" fill="#D34817" stroke="none" stroke-width="1"/>
</g>
<g id="layout-shape-2" data-name="文本框 1">
<rect x="1029.41" y="47.58" width="173.04" height="71.09" fill="none"/>
<text x="1115.93" y="97.45" text-anchor="middle" xml:space="preserve" font-family="sans-serif" font-size="58.67" fill="#9B2D1F" font-weight="bold"><tspan fill="#9B2D1F" font-size="58.67" font-weight="bold">LOGO</tspan></text>
</g>
<g id="layout-shape-10" data-name="直接连接符 9">
<line x1="70.33" y1="108" x2="990.85" y2="108" fill="#D34817" stroke="#D34817" stroke-width="1"/>
</g>
<g id="shape-2" data-name="文本框 1">
<rect x="69.33" y="48.67" width="265.57" height="51.7" fill="none"/>
<text x="69.33" y="84.93" text-anchor="start" xml:space="preserve" font-family="&quot;思源黑体 CN Medium&quot;, sans-serif" font-size="42.67" fill="#000000" font-weight="bold"><tspan fill="#000000" font-size="42.67" font-weight="bold">点击添加标题</tspan></text>
</g>
<g id="shape-3" data-name="文本框 2">
<rect x="338.36" y="68.66" width="171.98" height="29.08" fill="none"/>
<text x="338.36" y="89.06" text-anchor="start" xml:space="preserve" font-family="&quot;思源黑体 CN Medium&quot;, sans-serif" font-size="24" fill="#A6A6A6"><tspan fill="#A6A6A6" font-size="24">输入您的副标题</tspan></text>
</g>
<g id="shape-4" data-name="表格 3">
<rect x="70.33" y="185.23" width="141.88" height="79.02" fill="none"/>
<rect x="212.21" y="185.23" width="141.88" height="79.02" fill="none"/>
<rect x="354.09" y="185.23" width="141.88" height="79.02" fill="none"/>
<rect x="495.97" y="185.23" width="141.88" height="79.02" fill="#D34817"/>
<rect x="637.84" y="185.23" width="141.88" height="79.02" fill="none"/>
<rect x="70.33" y="264.25" width="141.88" height="79.02" fill="none"/>
<rect x="212.21" y="264.25" width="141.88" height="79.02" fill="none"/>
<rect x="354.09" y="264.25" width="141.88" height="79.02" fill="none"/>
<rect x="495.97" y="264.25" width="141.88" height="79.02" fill="#D34817"/>
<rect x="637.84" y="264.25" width="141.88" height="79.02" fill="none"/>
<rect x="70.33" y="343.27" width="141.88" height="79.02" fill="none"/>
<rect x="212.21" y="343.27" width="141.88" height="79.02" fill="none"/>
<rect x="354.09" y="343.27" width="141.88" height="79.02" fill="none"/>
<rect x="495.97" y="343.27" width="141.88" height="79.02" fill="#D34817"/>
<rect x="637.84" y="343.27" width="141.88" height="79.02" fill="none"/>
<rect x="70.33" y="422.29" width="141.88" height="79.02" fill="none"/>
<rect x="212.21" y="422.29" width="141.88" height="79.02" fill="none"/>
<rect x="354.09" y="422.29" width="141.88" height="79.02" fill="none"/>
<rect x="495.97" y="422.29" width="141.88" height="79.02" fill="#D34817"/>
<rect x="637.84" y="422.29" width="141.88" height="79.02" fill="none"/>
<rect x="70.33" y="501.32" width="141.88" height="79.02" fill="none"/>
<rect x="212.21" y="501.32" width="141.88" height="79.02" fill="none"/>
<rect x="354.09" y="501.32" width="141.88" height="79.02" fill="none"/>
<rect x="495.97" y="501.32" width="141.88" height="79.02" fill="#D34817"/>
<rect x="637.84" y="501.32" width="141.88" height="79.02" fill="none"/>
<text x="283.15" y="210.43" text-anchor="middle" xml:space="preserve" font-family="&quot;思源黑体 CN Medium&quot;, sans-serif" font-size="24" fill="#000000"><tspan fill="#000000" font-size="24">ONE</tspan></text>
<text x="425.03" y="210.43" text-anchor="middle" xml:space="preserve" font-family="&quot;思源黑体 CN Medium&quot;, sans-serif" font-size="24" fill="#000000"><tspan fill="#000000" font-size="24">TWO</tspan></text>
<text x="566.91" y="210.43" text-anchor="middle" xml:space="preserve" font-family="&quot;思源黑体 CN Medium&quot;, sans-serif" font-size="24" fill="#FFFFFF"><tspan fill="#FFFFFF" font-size="24">THREE</tspan></text>
<text x="708.78" y="210.43" text-anchor="middle" xml:space="preserve" font-family="&quot;思源黑体 CN Medium&quot;, sans-serif" font-size="24" fill="#000000"><tspan fill="#000000" font-size="24">FOUR</tspan></text>
<text x="141.27" y="289.45" text-anchor="middle" xml:space="preserve" font-family="&quot;思源黑体 CN Medium&quot;, sans-serif" font-size="24" fill="#9B2D1F" font-weight="bold"><tspan fill="#9B2D1F" font-size="24" font-weight="bold">20XX</tspan><tspan fill="#9B2D1F" font-size="24" font-weight="bold">年</tspan><tspan fill="#9B2D1F" font-size="24" font-weight="bold">1</tspan><tspan fill="#9B2D1F" font-size="24" font-weight="bold">月</tspan></text>
<text x="283.15" y="287.18" text-anchor="middle" xml:space="preserve" font-family="&quot;思源黑体 CN Medium&quot;, sans-serif" font-size="21.33" fill="#808080"><tspan fill="#808080" font-size="21.33">2,556</tspan></text>
<text x="425.03" y="287.18" text-anchor="middle" xml:space="preserve" font-family="&quot;思源黑体 CN Medium&quot;, sans-serif" font-size="21.33" fill="#808080"><tspan fill="#808080" font-size="21.33">6,578</tspan></text>
<text x="566.91" y="287.18" text-anchor="middle" xml:space="preserve" font-family="&quot;思源黑体 CN Medium&quot;, sans-serif" font-size="21.33" fill="#FFFFFF"><tspan fill="#FFFFFF" font-size="21.33">2,556</tspan></text>
<text x="708.78" y="287.18" text-anchor="middle" xml:space="preserve" font-family="&quot;思源黑体 CN Medium&quot;, sans-serif" font-size="21.33" fill="#808080"><tspan fill="#808080" font-size="21.33">6,578</tspan></text>
<text x="141.27" y="368.47" text-anchor="middle" xml:space="preserve" font-family="&quot;思源黑体 CN Medium&quot;, sans-serif" font-size="24" fill="#9B2D1F" font-weight="bold"><tspan fill="#9B2D1F" font-size="24" font-weight="bold">20XX</tspan><tspan fill="#9B2D1F" font-size="24" font-weight="bold">年</tspan><tspan fill="#9B2D1F" font-size="24" font-weight="bold">2</tspan><tspan fill="#9B2D1F" font-size="24" font-weight="bold">月</tspan></text>
<text x="283.15" y="366.21" text-anchor="middle" xml:space="preserve" font-family="&quot;思源黑体 CN Medium&quot;, sans-serif" font-size="21.33" fill="#000000"><tspan fill="#000000" font-size="21.33">2,556</tspan></text>
<text x="425.03" y="366.21" text-anchor="middle" xml:space="preserve" font-family="&quot;思源黑体 CN Medium&quot;, sans-serif" font-size="21.33" fill="#808080"><tspan fill="#808080" font-size="21.33">6,578</tspan></text>
<text x="566.91" y="366.21" text-anchor="middle" xml:space="preserve" font-family="&quot;思源黑体 CN Medium&quot;, sans-serif" font-size="21.33" fill="#FFFFFF"><tspan fill="#FFFFFF" font-size="21.33">2,556</tspan></text>
<text x="708.78" y="366.21" text-anchor="middle" xml:space="preserve" font-family="&quot;思源黑体 CN Medium&quot;, sans-serif" font-size="21.33" fill="#808080"><tspan fill="#808080" font-size="21.33">6,578</tspan></text>
<text x="141.27" y="447.49" text-anchor="middle" xml:space="preserve" font-family="&quot;思源黑体 CN Medium&quot;, sans-serif" font-size="24" fill="#9B2D1F" font-weight="bold"><tspan fill="#9B2D1F" font-size="24" font-weight="bold">20XX</tspan><tspan fill="#9B2D1F" font-size="24" font-weight="bold">年</tspan><tspan fill="#9B2D1F" font-size="24" font-weight="bold">3</tspan><tspan fill="#9B2D1F" font-size="24" font-weight="bold">月</tspan></text>
<text x="283.15" y="445.23" text-anchor="middle" xml:space="preserve" font-family="&quot;思源黑体 CN Medium&quot;, sans-serif" font-size="21.33" fill="#808080"><tspan fill="#808080" font-size="21.33">2,556</tspan></text>
<text x="425.03" y="445.23" text-anchor="middle" xml:space="preserve" font-family="&quot;思源黑体 CN Medium&quot;, sans-serif" font-size="21.33" fill="#808080"><tspan fill="#808080" font-size="21.33">6,578</tspan></text>
<text x="566.91" y="445.23" text-anchor="middle" xml:space="preserve" font-family="&quot;思源黑体 CN Medium&quot;, sans-serif" font-size="21.33" fill="#FFFFFF"><tspan fill="#FFFFFF" font-size="21.33">2,556</tspan></text>
<text x="708.78" y="445.23" text-anchor="middle" xml:space="preserve" font-family="&quot;思源黑体 CN Medium&quot;, sans-serif" font-size="21.33" fill="#808080"><tspan fill="#808080" font-size="21.33">6,578</tspan></text>
<text x="141.27" y="526.52" text-anchor="middle" xml:space="preserve" font-family="&quot;思源黑体 CN Medium&quot;, sans-serif" font-size="24" fill="#9B2D1F" font-weight="bold"><tspan fill="#9B2D1F" font-size="24" font-weight="bold">20XX</tspan><tspan fill="#9B2D1F" font-size="24" font-weight="bold">年</tspan><tspan fill="#9B2D1F" font-size="24" font-weight="bold">4</tspan><tspan fill="#9B2D1F" font-size="24" font-weight="bold">月</tspan></text>
<text x="283.15" y="524.25" text-anchor="middle" xml:space="preserve" font-family="&quot;思源黑体 CN Medium&quot;, sans-serif" font-size="21.33" fill="#808080"><tspan fill="#808080" font-size="21.33">2,556</tspan></text>
<text x="425.03" y="524.25" text-anchor="middle" xml:space="preserve" font-family="&quot;思源黑体 CN Medium&quot;, sans-serif" font-size="21.33" fill="#808080"><tspan fill="#808080" font-size="21.33">6,578</tspan></text>
<text x="566.91" y="524.25" text-anchor="middle" xml:space="preserve" font-family="&quot;思源黑体 CN Medium&quot;, sans-serif" font-size="21.33" fill="#FFFFFF"><tspan fill="#FFFFFF" font-size="21.33">2,556</tspan></text>
<text x="708.78" y="524.25" text-anchor="middle" xml:space="preserve" font-family="&quot;思源黑体 CN Medium&quot;, sans-serif" font-size="21.33" fill="#808080"><tspan fill="#808080" font-size="21.33">6,578</tspan></text>
<line x1="212.21" y1="264.25" x2="354.09" y2="264.25" stroke-width="1.333" stroke-linecap="butt" stroke="#D9D9D9" stroke-linejoin="round"/>
<line x1="354.09" y1="264.25" x2="495.97" y2="264.25" stroke-width="1.333" stroke-linecap="butt" stroke="#D9D9D9" stroke-linejoin="round"/>
<line x1="495.97" y1="264.25" x2="637.84" y2="264.25" stroke-width="1.333" stroke-linecap="butt" stroke="#D9D9D9" stroke-linejoin="round"/>
<line x1="637.84" y1="264.25" x2="779.72" y2="264.25" stroke-width="1.333" stroke-linecap="butt" stroke="#D9D9D9" stroke-linejoin="round"/>
<line x1="212.21" y1="264.25" x2="354.09" y2="264.25" stroke-width="1.333" stroke-linecap="butt" stroke="#D9D9D9" stroke-linejoin="round"/>
<line x1="354.09" y1="264.25" x2="495.97" y2="264.25" stroke-width="1.333" stroke-linecap="butt" stroke="#D9D9D9" stroke-linejoin="round"/>
<line x1="495.97" y1="264.25" x2="637.84" y2="264.25" stroke-width="1.333" stroke-linecap="butt" stroke="#D9D9D9" stroke-linejoin="round"/>
<line x1="637.84" y1="264.25" x2="779.72" y2="264.25" stroke-width="1.333" stroke-linecap="butt" stroke="#D9D9D9" stroke-linejoin="round"/>
<line x1="70.33" y1="580.34" x2="212.21" y2="580.34" stroke-width="1.333" stroke-linecap="butt" stroke="#D9D9D9" stroke-linejoin="round"/>
<line x1="212.21" y1="580.34" x2="354.09" y2="580.34" stroke-width="1.333" stroke-linecap="butt" stroke="#D9D9D9" stroke-linejoin="round"/>
<line x1="354.09" y1="580.34" x2="495.97" y2="580.34" stroke-width="1.333" stroke-linecap="butt" stroke="#D9D9D9" stroke-linejoin="round"/>
<line x1="495.97" y1="580.34" x2="637.84" y2="580.34" stroke-width="1.333" stroke-linecap="butt" stroke="#D9D9D9" stroke-linejoin="round"/>
<line x1="637.84" y1="580.34" x2="779.72" y2="580.34" stroke-width="1.333" stroke-linecap="butt" stroke="#D9D9D9" stroke-linejoin="round"/>
</g>
<g id="shape-5" data-name="组合 4">
<g id="shape-6" data-name="îŝḷïdè">
<ellipse cx="1168.05" cy="168.82" rx="35.11" ry="35.11" fill="url(#ggrad2)" stroke="none"/>
</g>
<g id="shape-7" data-name="iśļiḓê">
<path d="M 1168.03 159.33 C 1169.65 159.33 1170.9 160.63 1170.9 162.2 L 1170.9 165.98 L 1174.69 165.98 C 1176.26 165.98 1177.56 167.23 1177.56 168.85 C 1177.56 170.42 1176.26 171.66 1174.69 171.66 L 1170.9 171.66 L 1170.9 175.44 C 1170.9 177.01 1169.65 178.31 1168.03 178.31 C 1166.46 178.31 1165.21 177.01 1165.21 175.44 L 1165.21 171.66 L 1161.42 171.66 C 1159.85 171.66 1158.55 170.42 1158.55 168.85 C 1158.55 167.23 1159.85 165.98 1161.42 165.98 L 1165.21 165.98 L 1165.21 162.2 C 1165.21 160.63 1166.46 159.33 1168.03 159.33 Z M 1168.08 156.68 C 1161.37 156.68 1155.9 162.14 1155.9 168.85 C 1155.9 175.5 1161.37 180.96 1168.08 180.96 C 1174.74 180.96 1180.21 175.5 1180.21 168.85 C 1180.21 162.14 1174.74 156.68 1168.08 156.68 Z M 1168.08 152.41 C 1177.12 152.41 1184.49 159.77 1184.49 168.85 C 1184.49 177.88 1177.12 185.23 1168.08 185.23 C 1158.98 185.23 1151.62 177.88 1151.62 168.85 C 1151.62 159.77 1158.98 152.41 1168.08 152.41 Z" fill="#FFFFFF" stroke-width="0.333" stroke="none" stroke-linejoin="round"/>
</g>
</g>
<g id="shape-8" data-name="íşḻîďe">
<rect x="808.14" y="299.41" width="395.02" height="263.29" fill="none" stroke="none"/>
<text x="808.14" y="315.28" text-anchor="start" xml:space="preserve" font-family="&quot;思源黑体 CN Medium&quot;, sans-serif" font-size="18.67" fill="#808080"><tspan fill="#808080" font-size="18.67">单击此处输入你的正文，文字是您思想的提炼，</tspan><tspan x="808.14" dy="28" fill="#808080" font-size="18.67">为了最终演示发布的良好效果，请尽量言简意赅</tspan><tspan x="808.14" dy="28" fill="#808080" font-size="18.67">的阐述观点；根据需要可酌情增减文字，以便观</tspan><tspan x="808.14" dy="28" fill="#808080" font-size="18.67">者可以准确理解您所传达的信息。单击此处输入</tspan><tspan x="808.14" dy="28" fill="#808080" font-size="18.67">你的正文，文字是您思想的提炼，为了最终演示</tspan><tspan x="808.14" dy="28" fill="#808080" font-size="18.67">发布的良好效果，请尽量言简意赅的阐述观点；</tspan><tspan x="808.14" dy="28" fill="#808080" font-size="18.67">根据需要可酌情增减文字，以便观者可以准确理</tspan><tspan x="808.14" dy="28" fill="#808080" font-size="18.67">解您所传达的信息。</tspan></text>
</g>
<g id="shape-9" data-name="íś1íḍè">
<rect x="808.14" y="220.16" width="395.03" height="63.02" fill="none"/>
<text x="1203.17" y="262.34" text-anchor="end" xml:space="preserve" font-family="&quot;思源黑体 CN Medium&quot;, sans-serif" font-size="42.67" fill="#000000" font-weight="bold" letter-spacing="2"><tspan fill="#000000" font-size="42.67" font-weight="bold" letter-spacing="2">点击添加标题</tspan></text>
</g>
<g id="shape-10" data-name="直接连接符 9">
<line x1="832.59" y1="391.47" x2="1203.68" y2="391.47" stroke="#BFBFBF" stroke-dasharray="8 4" fill="#D34817" stroke-width="1"/>
</g></svg>